<svg width="42" height="37" viewBox="0 0 42 37" fill="none" xmlns="http://www.w3.org/2000/svg">
<g filter="url(#filter0_d_29_492)">
<path fill-rule="evenodd" clip-rule="evenodd" d="M37 27.8698C33.0855 23.1267 29.6094 20.4352 26.5715 19.7953C23.5337 19.1555 20.6414 19.0589 17.8946 19.5053V28L5 14.1389L17.8946 1V9.07379C22.9734 9.11366 27.291 10.9223 30.8476 14.5C34.4042 18.0777 36.455 22.5342 37 27.8698Z" fill="#B12C52"/>
<path fill-rule="evenodd" clip-rule="evenodd" d="M37 27.8698C33.0855 23.1267 29.6094 20.4352 26.5715 19.7953C23.5337 19.1555 20.6414 19.0589 17.8946 19.5053V28L5 14.1389L17.8946 1V9.07379C22.9734 9.11366 27.291 10.9223 30.8476 14.5C34.4042 18.0777 36.455 22.5342 37 27.8698Z" stroke="#B12C52" stroke-width="2" stroke-linejoin="round"/>
</g>
<defs>
<filter id="filter0_d_29_492" x="0" y="-3.05176e-05" width="42.0001" height="37.0001" filterUnits="userSpaceOnUse" color-interpolation-filters="sRGB">
<feFlood flood-opacity="0" result="BackgroundImageFix"/>
<feColorMatrix in="SourceAlpha" type="matrix" values="0 0 0 0 0 0 0 0 0 0 0 0 0 0 0 0 0 0 127 0" result="hardAlpha"/>
<feOffset dy="4"/>
<feGaussianBlur stdDeviation="2"/>
<feComposite in2="hardAlpha" operator="out"/>
<feColorMatrix type="matrix" values="0 0 0 0 0 0 0 0 0 0 0 0 0 0 0 0 0 0 0.25 0"/>
<feBlend mode="normal" in2="BackgroundImageFix" result="effect1_dropShadow_29_492"/>
<feBlend mode="normal" in="SourceGraphic" in2="effect1_dropShadow_29_492" result="shape"/>
</filter>
</defs>
</svg>
